<svg xmlns="http://www.w3.org/2000/svg" width="70.454" height="47.693" viewBox="0 0 70.454 47.693">
  <g id="Group_47" data-name="Group 47" transform="translate(278.223 -1055.281)">
    <path id="Path_85" data-name="Path 85" d="M-211.476,1102.974h-18.842l-.073-.011-15.855-2.368L-257,1099.236a20.089,20.089,0,0,1-8.112,1.506,27.6,27.6,0,0,1-2.777-.143,64.669,64.669,0,0,1-9.46-1.429l-.87-.243,4.336-25.2V1057.1h3.687v2.088h2.218l-1.146-3.9h7.331l-1.253,4.115,2.975.525,1.115-2.824h3.074l-.979,3.863,3.123-1.011,5.826,3.839v1.832l19.881-4.25,4.651,5.1v.9l9.459-1.691Zm-18.693-2h16.557l-2.164-32.936-9.61,1.718v-2.511l-3.355-3.678-21.177,4.526v-3.228l-4.124-2.718-5.653,1.83.475-1.874-6.139-1.084.048.165h-6.577V1073.9l-4.052,23.547c1.234.256,3.839.719,8.247,1.166a25.61,25.61,0,0,0,2.575.133,17.464,17.464,0,0,0,7.476-1.419l.281-.15.313.042,11.084,1.4Zm-36.287-43.693.962,3.276,1-3.276Z" fill="#061ac7"/>
    <path id="Path_86" data-name="Path 86" d="M-227.464,1109.707l-3.058-34.559,1.992-.176,3.058,34.559Z" transform="translate(-28.958 -11.829)" fill="#061ac7"/>
    <path id="Path_92" data-name="Path 92" d="M-228.527,1109.119h-2V1075.06h2Z" transform="translate(4.83 -6.855)" fill="#061ac7"/>
    <path id="Path_87" data-name="Path 87" d="M-268.077,485.728c0-.066-.394-6.035-1.617-8.854a12.9,12.9,0,0,0-2.827-3.992,9.714,9.714,0,0,0-1.809,2.13,16.807,16.807,0,0,0-2.3,9.443l-2,.027a22.311,22.311,0,0,1,.789-6.436,15.508,15.508,0,0,1,1.905-4.24,10.027,10.027,0,0,1,2.964-3.079l.586-.34.533.418a14.8,14.8,0,0,1,3.989,5.274c1.362,3.142,1.761,9.265,1.778,9.524Z" transform="translate(23.657 614.008)" fill="#061ac7"/>
    <path id="Path_89" data-name="Path 89" d="M-273.856,478.233h0a16.323,16.323,0,0,0-.691-3.971,5.23,5.23,0,0,0-.784-1.278,6.933,6.933,0,0,0-1.3,4.616l-2,.026a9.483,9.483,0,0,1,1.3-5.278,5.111,5.111,0,0,1,1.519-1.614l.6-.361.544.441a7.479,7.479,0,0,1,1.96,2.674,18.033,18.033,0,0,1,.843,4.623Z" transform="translate(4.645 596.614)" fill="#061ac7"/>
    <path id="Path_90" data-name="Path 90" d="M-273.856,478.233h0a16.323,16.323,0,0,0-.691-3.971,5.23,5.23,0,0,0-.784-1.278,6.933,6.933,0,0,0-1.3,4.616l-2,.026a9.483,9.483,0,0,1,1.3-5.278,5.111,5.111,0,0,1,1.519-1.614l.6-.361.544.441a7.479,7.479,0,0,1,1.96,2.674,18.033,18.033,0,0,1,.843,4.623Z" transform="translate(9.847 596.614)" fill="#061ac7"/>
    <path id="Path_91" data-name="Path 91" d="M-273.856,478.233h0a16.323,16.323,0,0,0-.691-3.971,5.23,5.23,0,0,0-.784-1.278,6.933,6.933,0,0,0-1.3,4.616l-2,.026a9.483,9.483,0,0,1,1.3-5.278,5.111,5.111,0,0,1,1.519-1.614l.6-.361.544.441a7.479,7.479,0,0,1,1.96,2.674,18.033,18.033,0,0,1,.843,4.623Z" transform="translate(15.049 596.614)" fill="#061ac7"/>
    <path id="Path_88" data-name="Path 88" d="M6.916-3.628A19.642,19.642,0,0,1,14.6-1.852l.5.243L16.333,10.17l-1.488-.518A25.814,25.814,0,0,0,7.559,8.376,25.213,25.213,0,0,0,.333,9.65L-1,10.119V-2.391l.7-.219A26.728,26.728,0,0,1,6.916-3.628ZM13.224-.27A17.605,17.605,0,0,0,6.916-1.628,25.6,25.6,0,0,0,1-.89V7.355a25.716,25.716,0,0,1,6.559-.979,26.017,26.017,0,0,1,6.462.942Z" transform="translate(-272.982 1067.085)" fill="#061ac7"/>
    <rect id="Rectangle_188" data-name="Rectangle 188" width="4.469" height="4.469" transform="translate(-241.241 1076.076)" fill="#fff"/>
    <path id="Rectangle_188_-_Outline" data-name="Rectangle 188 - Outline" d="M2,2v.469h.469V2H2M0,0H4.469V4.469H0Z" transform="translate(-241.241 1076.076)" fill="#061ac7"/>
    <rect id="Rectangle_189" data-name="Rectangle 189" width="3.351" height="3.351" transform="translate(-234.539 1073.841)" fill="#fff"/>
    <path id="Rectangle_189_-_Outline" data-name="Rectangle 189 - Outline" d="M0,0H3.351V3.351H0Z" transform="translate(-234.539 1073.841)" fill="#061ac7"/>
    <path id="Path_93" data-name="Path 93" d="M-101.293,1120.623h-4.774v-2h2.625l-2.191-30.427-3.132-3.2,1.429-1.4,3.646,3.722Z" transform="translate(-106.476 -17.649)" fill="#061ac7"/>
  </g>
</svg>
