<svg xmlns="http://www.w3.org/2000/svg" width="24.089" height="23.979" viewBox="0 0 24.089 23.979">
  <g id="Group_523" data-name="Group 523" transform="translate(-883.408 834.937)">
    <g id="Group_7" data-name="Group 7" transform="matrix(0.995, -0.105, 0.105, 0.995, 226.439, 73.716)">
      <path id="Path_16" data-name="Path 16" d="M759.406-821.927c3.169-1.233-1.29,2.563-3.528,7.253a15.865,15.865,0,0,0-1.027,8.016l-4.765-6.142S753.483-819.624,759.406-821.927Z" transform="translate(-2.091 -9.47)" fill="#cde1f3"/>
      <g id="Ellipse_56" data-name="Ellipse 56" transform="translate(748.761 -832.784)" fill="none" stroke="#061ac7" stroke-width="2">
        <circle cx="10.351" cy="10.351" r="10.351" stroke="none"/>
        <circle cx="10.351" cy="10.351" r="9.351" fill="none"/>
      </g>
      <path id="Path_32" data-name="Path 32" d="M760-820.275l3.2,3.636" transform="translate(5.257 5.965)" fill="none" stroke="#061ac7" stroke-linecap="round" stroke-width="2"/>
    </g>
    <path id="Polygon_1" data-name="Polygon 1" d="M3.5-.015A1.981,1.981,0,0,1,5.228.977L6.987,3.992A2,2,0,0,1,5.259,7H1.741A2,2,0,0,1,.013,3.992L1.772.977A1.981,1.981,0,0,1,3.5-.015ZM5.259,5,3.5,1.985s0,0,0,0L1.741,5Z" transform="translate(899.5 -827.106) rotate(90)" fill="#061ac7"/>
  </g>
</svg>
