<svg xmlns="http://www.w3.org/2000/svg" width="41.425" height="80.458" viewBox="0 0 41.425 80.458">
  <path id="Union_6" data-name="Union 6" d="M1012.973,80.457A1,1,0,0,1,1012,79.43c0-.086.136-4.638.733-11.222V65.9l-.3.12.3-1.687v-.055h.009l1.309-7.388c.456-3.159,1.01-6.441,1.682-9.7q.2-.962.411-1.923l-.165.068.684-2.337a227.233,227.233,0,0,1,8.487-27.248l.068-.173L1024.566.085l2-.085.671,15.906.307.689a1,1,0,0,1,.662.364,122.939,122.939,0,0,1,10.76,16.627,139.67,139.67,0,0,1,8.423,18.36,115.327,115.327,0,0,1,6.026,22.982,1,1,0,0,1-.841,1.137.948.948,0,0,1-.15.012,1,1,0,0,1-.987-.852,113.289,113.289,0,0,0-5.912-22.552,137.529,137.529,0,0,0-8.289-18.082c-2.22-4.052-4.355-7.479-6.118-10.134l.135.313c.328.763.676,1.587,1.036,2.465l.9,2.028h-.088a134.81,134.81,0,0,1,5.407,16.582c.69,2.771,1.537,6.691,2.314,11.725l.176.869h-.044c.449,3.016.87,6.412,1.217,10.181.583,6.325.682,10.775.683,10.819a1,1,0,0,1-2,.042c0-.023-.029-1.283-.143-3.4h-26.558c-.119,2.114-.156,3.366-.157,3.41a1,1,0,0,1-1,.973Zm27.171-6.383V71.213h-25.658c-.081,1.032-.149,1.991-.207,2.862Zm-25.41-4.862h25.486q-.019-.214-.039-.43c-.073-.786-.155-1.623-.248-2.5h-25.007q-.1,1.031-.192,2.009Zm2.04-4.936h19.111l-9.637-3.8Zm9.838-5.809,13.019,5.137c-.2-1.633-.427-3.369-.7-5.169h-12.4Zm-11.3,4.24,10.644-4.272h-10.1C1015.652,59.9,1015.472,61.327,1015.312,62.709Zm23.244-6.272-.866-4.281h-20.862c-.251,1.44-.48,2.872-.689,4.281Zm-21.064-6.281h19.957c-.263-1.242-.546-2.485-.851-3.718h-18.271Zm15.466-5.718-6.75-3.335-7.8,3.229-.024.106Zm2.905-.8c-.48-1.731-1.078-3.723-1.816-5.947H1020.3l-1.228,4.2,7.208-2.983Zm-3.122-7.947-.183-.66h-11.734c-.063.219-.125.438-.188.66Zm-10.8-2.66h10.471q-.673-1.816-1.457-3.775h-7.6Zm8.172-5.775-3.532-7.919q-.194-.4-.364-.747c-.7,1.885-1.788,4.925-3.006,8.666Z" transform="translate(-1012)" fill="#061ac7"/>
</svg>
