<svg xmlns="http://www.w3.org/2000/svg" width="86.055" height="76.417" viewBox="0 0 86.055 76.417">
  <g id="Group_55" data-name="Group 55" transform="translate(-297.944 -727.564)">
    <path id="Path_137" data-name="Path 137" d="M2-2.18,2.04,39.4l1.986-.056L4.26-1.867,2-2.18M0-4.237l6.268.868-.26,44.656L.041,41.45Z" transform="translate(309 749.76)" fill="#061ac7"/>
    <path id="Path_138" data-name="Path 138" d="M6.377-13.283,2-10.121V31.221H6.377v-44.5m2-3.69V32.94H0V-10.921Z" transform="translate(317.923 758.107)" fill="#061ac7"/>
    <path id="Path_139" data-name="Path 139" d="M2-12.767V30.6l6.229-.765L6.214-9.338,2-12.767M0-16.974l8.171,6.65L10.312,31.6,0,32.864Z" transform="translate(324.537 758.107)" fill="#061ac7"/>
    <path id="Path_140" data-name="Path 140" d="M250.624,1136.185l-1.775-49.435-6.583-1.247-5.738-6.139-5.137,4.63v4.637h-4.9v-3.05h-2.729v9.923h-2v-11.923h6.729v3.05h.9V1083.1l7.257-6.541,6.633,7.1,7.51,1.422,1.832,51.031Z" transform="translate(89.538 -349)" fill="#061ac7"/>
    <path id="Line_31" data-name="Line 31" d="M.96,41.966-1,.047,1-.047l1.959,41.92Z" transform="translate(336.094 747.588)" fill="#061ac7"/>
    <path id="Path_141" data-name="Path 141" d="M275.043,1122.981l-.566-1.918,6.713-1.983.566,1.918Z" transform="translate(57.91 -374.591)" fill="#061ac7"/>
    <path id="Path_143" data-name="Path 143" d="M275.043,1122.981l-.566-1.918,6.713-1.983.566,1.918Z" transform="translate(654.666 -356.721) rotate(31)" fill="#061ac7"/>
    <path id="Subtraction_19" data-name="Subtraction 19" d="M2.02,5.114A19.363,19.363,0,0,1,6.551,3.551a37.331,37.331,0,0,1,8.14-.85,37.86,37.86,0,0,1,7.754.765A22.875,22.875,0,0,1,26.04,4.523a8.567,8.567,0,0,0-2.3-1.147A29.273,29.273,0,0,0,14.3,2,29.274,29.274,0,0,0,4.859,3.376,7.931,7.931,0,0,0,2.412,4.64a1.537,1.537,0,0,0-.4.452l.011.022M1.814,7.577h0A4.974,4.974,0,0,1,.474,6.4,2.18,2.18,0,0,1,0,5.093,2.655,2.655,0,0,1,1.124,3.111,10,10,0,0,1,4.188,1.492,31.288,31.288,0,0,1,14.3,0,31.287,31.287,0,0,1,24.411,1.492a10,10,0,0,1,3.064,1.619A2.655,2.655,0,0,1,28.6,5.093,2.875,2.875,0,0,1,27.177,7.31a16.16,16.16,0,0,0-5.149-1.888A35.834,35.834,0,0,0,14.692,4.7,35.308,35.308,0,0,0,7,5.5,14.414,14.414,0,0,0,1.814,7.577Z" transform="translate(312 737.345)" fill="#061ac7"/>
    <path id="Path_206" data-name="Path 206" d="M-150.085,800.1" transform="translate(479.429 2.876)" fill="#061ac7"/>
    <path id="Subtraction_21" data-name="Subtraction 21" d="M1043.4,18.842H1012V6.119l.93-.066,34.863-2.479a25.194,25.194,0,0,0-3.776,2.274L1014,7.982v8.86h29.4v2Zm54.655-1h-2V2.147l-29.482,2.1a20.759,20.759,0,0,0-3.231-1.775L1098.055,0V17.841Z" transform="translate(-714.055 785.138)" fill="#061ac7"/>
    <path id="Path_204_-_Outline" data-name="Path 204 - Outline" d="M-137.736,794.753A1,1,0,0,1-138.7,794a8.968,8.968,0,0,1,.78-5.555,14.163,14.163,0,0,1,3.807-4.869,28.19,28.19,0,0,1,8.311-4.66,16.839,16.839,0,0,1,10.483-.616,21.45,21.45,0,0,1,8,4.253,32.531,32.531,0,0,1,6.891,7.86,1,1,0,0,1-.357,1.368,1,1,0,0,1-1.368-.357,31.062,31.062,0,0,0-6.472-7.356,19.423,19.423,0,0,0-7.238-3.843,14.879,14.879,0,0,0-9.232.56c-13.46,5.108-11.69,12.64-11.67,12.715a1,1,0,0,1-.719,1.218A1,1,0,0,1-137.736,794.753Z" transform="translate(462.388 7.473)" fill="#061ac7"/>
    <path id="Path_205_-_Outline" data-name="Path 205 - Outline" d="M-137.777,792.137a1,1,0,0,1-.979-.8,9.222,9.222,0,0,1,.509-4.576,11.917,11.917,0,0,1,2.517-4.075,18.182,18.182,0,0,1,5.524-3.926,9.259,9.259,0,0,1,7.376-.463c5.975,2.144,9.556,9.76,9.705,10.083a1,1,0,0,1-.488,1.328,1,1,0,0,1-1.327-.488c-.033-.071-3.387-7.186-8.571-9.042a7.232,7.232,0,0,0-5.828.384,16.207,16.207,0,0,0-4.922,3.482,9.932,9.932,0,0,0-2.1,3.391,7.36,7.36,0,0,0-.432,3.5,1,1,0,0,1-.781,1.179A1,1,0,0,1-137.777,792.137Z" transform="translate(466.805 11.844)" fill="#061ac7"/>
  </g>
</svg>
