<svg xmlns="http://www.w3.org/2000/svg" width="83.334" height="51.831" viewBox="0 0 83.334 51.831">
  <g id="Group_53" data-name="Group 53" transform="translate(-53.653 -740.605)">
    <g id="Group_48" data-name="Group 48" transform="translate(172.024 -494.282)">
      <path id="Path_110" data-name="Path 110" d="M-131.024,1405.877l17.99,3.017.949-1.868v-7.778l16.511-4.022H-114l-12.041,2.6v5.553Z" transform="translate(15.841 -123.284)" fill="none" stroke="#061ac7" stroke-width="2"/>
      <path id="Path_111" data-name="Path 111" d="M4.677,1382.154v-8.485H40.412" transform="translate(-104.341 -110.212)" fill="none" stroke="#061ac7" stroke-width="2"/>
      <path id="Path_113" data-name="Path 113" d="M37.291,1344.22v-4.3H64.8" transform="translate(-129.417 -80.763)" fill="none" stroke="#061ac7" stroke-width="2"/>
      <path id="Path_115" data-name="Path 115" d="M37.291,1344.22v-4.3H59.483" transform="translate(-124.102 -85.058)" fill="none" stroke="#061ac7" stroke-width="2"/>
      <path id="Path_116" data-name="Path 116" d="M37.291,1344.22v-4.3H54.468" transform="translate(-119.087 -89.354)" fill="none" stroke="#061ac7" stroke-width="2"/>
      <g id="Path_114" data-name="Path 114" transform="translate(-64.618 1246)" fill="none">
        <path d="M0-8.545a44.809,44.809,0,0,1,14.13-2.568A59.5,59.5,0,0,1,29.581-8.545V32.823a42.182,42.182,0,0,1-14.417,2.97C7.768,35.792,0,32.823,0,32.823Z" stroke="none"/>
        <path d="M 14.12975406646729 -9.113040924072266 C 9.049160003662109 -9.113040924072266 4.226978302001953 -7.810997009277344 2.000003814697266 -7.110305786132812 L 2.000003814697266 31.40003204345703 C 4.437482833862305 32.19926452636719 9.950746536254883 33.79248809814453 15.16372394561768 33.79248809814453 C 20.30103874206543 33.79248809814453 25.33366394042969 32.24015808105469 27.58110427856445 31.44215202331543 L 27.58110427856445 -7.043176651000977 C 25.02469635009766 -7.744503021240234 19.36504936218262 -9.113040924072266 14.12975406646729 -9.113040924072266 M 14.12975406646729 -11.11304092407227 C 21.52503395080566 -11.11304092407227 29.58110427856445 -8.544792175292969 29.58110427856445 -8.544792175292969 L 29.58110427856445 32.82254791259766 C 29.58110427856445 32.82254791259766 22.55899429321289 35.79248809814453 15.16372394561768 35.79248809814453 C 7.768444061279297 35.79248809814453 3.814697265625e-06 32.82254791259766 3.814697265625e-06 32.82254791259766 L 3.814697265625e-06 -8.544792175292969 C 3.814697265625e-06 -8.544792175292969 6.734474182128906 -11.11304092407227 14.12975406646729 -11.11304092407227 Z" stroke="none" fill="#061ac7"/>
      </g>
      <path id="Path_117" data-name="Path 117" d="M94.248,1288.914l3.213-2.617,3.268,2.089,4.772-2.352,2.871,2.352" transform="translate(-173.212 -39.326)" fill="none" stroke="#061ac7" stroke-width="2"/>
      <path id="Path_118" data-name="Path 118" d="M147.451,1399.366v6.2" transform="translate(-214.119 -126.468)" fill="none" stroke="#061ac7" stroke-width="2"/>
      <path id="Path_119" data-name="Path 119" d="M147.451,1399.366v6.2" transform="translate(-219.352 -126.442)" fill="none" stroke="#061ac7" stroke-width="2"/>
      <path id="Path_120" data-name="Path 120" d="M147.451,1399.366v6.2" transform="translate(-238.901 -123.37)" fill="none" stroke="#061ac7" stroke-width="2"/>
      <path id="Path_127" data-name="Path 127" d="M147.451,1399.366v6.2" transform="translate(-234.318 -124.769)" fill="none" stroke="#061ac7" stroke-width="2"/>
      <path id="Path_121" data-name="Path 121" d="M147.451,1399.366v6.2" transform="translate(-224.585 -126.442)" fill="none" stroke="#061ac7" stroke-width="2"/>
      <path id="Path_122" data-name="Path 122" d="M147.451,1399.366v6.2" transform="translate(-229.927 -126.468)" fill="none" stroke="#061ac7" stroke-width="2"/>
      <path id="Path_125" data-name="Path 125" d="M5.575,1405.294v-9.473l14.4-3.37h17.01v-1.907l-35.853.858" transform="translate(-101.612 -119.684)" fill="none" stroke="#061ac7" stroke-width="2"/>
      <g id="Path_126" data-name="Path 126" transform="translate(-63.618 1259.701)" fill="none">
        <path d="M0-9.35a8.466,8.466,0,0,1,4.591-1.763A10.824,10.824,0,0,1,9.611-9.35v28.4s-2.281,2.039-4.684,2.039S0,19.053,0,19.053Z" stroke="none"/>
        <path d="M 4.590714454650879 -9.113033294677734 C 3.671872615814209 -9.113033294677734 2.687802314758301 -8.679880142211914 2.000004768371582 -8.284036636352539 L 2.000004768371582 18.0148811340332 C 2.820244789123535 18.52466011047363 3.995750904083252 19.09192657470703 4.926644802093506 19.09192657470703 C 5.848528385162354 19.09192657470703 6.905301094055176 18.53292465209961 7.610804557800293 18.06147384643555 L 7.610804557800293 -8.199375152587891 C 6.776841163635254 -8.626806259155273 5.584598541259766 -9.113033294677734 4.590714454650879 -9.113033294677734 M 4.590714454650879 -11.11303329467773 C 6.993414878845215 -11.11303329467773 9.610804557800293 -9.349693298339844 9.610804557800293 -9.349693298339844 L 9.610804557800293 19.05278778076172 C 9.610804557800293 19.05278778076172 7.329344749450684 21.09192657470703 4.926644802093506 21.09192657470703 C 2.523944854736328 21.09192657470703 4.76837158203125e-06 19.05278778076172 4.76837158203125e-06 19.05278778076172 L 4.76837158203125e-06 -9.349693298339844 C 4.76837158203125e-06 -9.349693298339844 2.188014507293701 -11.11303329467773 4.590714454650879 -11.11303329467773 Z" stroke="none" fill="#061ac7"/>
      </g>
      <g id="Rectangle_190" data-name="Rectangle 190" transform="translate(-57.024 1242.282)" fill="#fff" stroke="#061ac7" stroke-width="2">
        <rect width="3" height="3" stroke="none"/>
        <rect x="1" y="1" width="1" height="1" fill="none"/>
      </g>
      <g id="Rectangle_191" data-name="Rectangle 191" transform="translate(-51.024 1242.282)" fill="#fff" stroke="#061ac7" stroke-width="2">
        <rect width="3" height="3" stroke="none"/>
        <rect x="1" y="1" width="1" height="1" fill="none"/>
      </g>
      <g id="Rectangle_194" data-name="Rectangle 194" transform="translate(-51.024 1249.282)" fill="#fff" stroke="#061ac7" stroke-width="2">
        <rect width="3" height="3" stroke="none"/>
        <rect x="1" y="1" width="1" height="1" fill="none"/>
      </g>
      <g id="Rectangle_196" data-name="Rectangle 196" transform="translate(-51.024 1256.282)" fill="#fff" stroke="#061ac7" stroke-width="2">
        <rect width="3" height="3" stroke="none"/>
        <rect x="1" y="1" width="1" height="1" fill="none"/>
      </g>
      <g id="Rectangle_198" data-name="Rectangle 198" transform="translate(-51.024 1263.282)" fill="#fff" stroke="#061ac7" stroke-width="2">
        <rect width="3" height="3" stroke="none"/>
        <rect x="1" y="1" width="1" height="1" fill="none"/>
      </g>
      <g id="Rectangle_200" data-name="Rectangle 200" transform="translate(-51.024 1270.282)" fill="#fff" stroke="#061ac7" stroke-width="2">
        <rect width="3" height="3" stroke="none"/>
        <rect x="1" y="1" width="1" height="1" fill="none"/>
      </g>
      <g id="Rectangle_192" data-name="Rectangle 192" transform="translate(-45.024 1242.282)" fill="#fff" stroke="#061ac7" stroke-width="2">
        <rect width="3" height="3" stroke="none"/>
        <rect x="1" y="1" width="1" height="1" fill="none"/>
      </g>
      <g id="Rectangle_193" data-name="Rectangle 193" transform="translate(-45.024 1249.282)" fill="#fff" stroke="#061ac7" stroke-width="2">
        <rect width="3" height="3" stroke="none"/>
        <rect x="1" y="1" width="1" height="1" fill="none"/>
      </g>
      <g id="Rectangle_195" data-name="Rectangle 195" transform="translate(-45.024 1256.282)" fill="#fff" stroke="#061ac7" stroke-width="2">
        <rect width="3" height="3" stroke="none"/>
        <rect x="1" y="1" width="1" height="1" fill="none"/>
      </g>
      <g id="Rectangle_197" data-name="Rectangle 197" transform="translate(-45.024 1263.282)" fill="#fff" stroke="#061ac7" stroke-width="2">
        <rect width="3" height="3" stroke="none"/>
        <rect x="1" y="1" width="1" height="1" fill="none"/>
      </g>
      <g id="Rectangle_199" data-name="Rectangle 199" transform="translate(-45.024 1270.282)" fill="#fff" stroke="#061ac7" stroke-width="2">
        <rect width="3" height="3" stroke="none"/>
        <rect x="1" y="1" width="1" height="1" fill="none"/>
      </g>
    </g>
  </g>
</svg>
