<svg xmlns="http://www.w3.org/2000/svg" width="71.47" height="62.338" viewBox="0 0 71.47 62.338">
  <g id="Group_54" data-name="Group 54" transform="translate(-181.294 -430)">
    <rect id="Rectangle_184" data-name="Rectangle 184" width="42.471" height="8.668" transform="translate(192.529 458.332)" fill="#fff"/>
    <path id="Rectangle_184_-_Outline" data-name="Rectangle 184 - Outline" d="M2,2V6.668H40.471V2H2M0,0H42.471V8.668H0Z" transform="translate(192.529 458.332)" fill="#061ac7"/>
    <path id="Path_76" data-name="Path 76" d="M-276.628,492.331l-2-.073c.012-.334.322-8.235,2.384-13.2a22.98,22.98,0,0,1,5.974-8.245l.547-.448.6.367a15.166,15.166,0,0,1,4.381,4.766,24.835,24.835,0,0,1,2.86,6.645,36.677,36.677,0,0,1,1.191,10.161l-2-.026a34.787,34.787,0,0,0-1.093-9.507,22.992,22.992,0,0,0-2.579-6.093,15.42,15.42,0,0,0-3.215-3.8,21.455,21.455,0,0,0-4.824,6.947C-276.321,484.46-276.626,492.253-276.628,492.331Z" transform="translate(461)" fill="#061ac7"/>
    <path id="Path_78" data-name="Path 78" d="M-276.628,492.331l-2-.073c.012-.334.322-8.235,2.384-13.2a22.98,22.98,0,0,1,5.974-8.245l.547-.448.6.367a15.166,15.166,0,0,1,4.381,4.766,24.835,24.835,0,0,1,2.86,6.645,36.677,36.677,0,0,1,1.191,10.161l-2-.026a34.787,34.787,0,0,0-1.093-9.507,22.992,22.992,0,0,0-2.579-6.093,15.42,15.42,0,0,0-3.215-3.8,21.455,21.455,0,0,0-4.824,6.947C-276.321,484.46-276.626,492.253-276.628,492.331Z" transform="translate(478)" fill="#061ac7"/>
    <path id="Path_79" data-name="Path 79" d="M-276.628,492.331l-2-.073c.012-.334.322-8.235,2.384-13.2a22.98,22.98,0,0,1,5.974-8.245l.547-.448.6.367a15.166,15.166,0,0,1,4.381,4.766,24.835,24.835,0,0,1,2.86,6.645,36.677,36.677,0,0,1,1.191,10.161l-2-.026a34.787,34.787,0,0,0-1.093-9.507,22.992,22.992,0,0,0-2.579-6.093,15.42,15.42,0,0,0-3.215-3.8,21.455,21.455,0,0,0-4.824,6.947C-276.321,484.46-276.626,492.253-276.628,492.331Z" transform="translate(495)" fill="#061ac7"/>
    <path id="Path_80" data-name="Path 80" d="M-276.629,492.338l-2-.086c.014-.335.382-8.264,2.827-13.247a23.842,23.842,0,0,1,7.04-8.236l.493-.342.533.274c.229.118,5.653,2.981,8.5,11.335l-1.893.645a21.415,21.415,0,0,0-4.732-7.96,14.5,14.5,0,0,0-2.269-1.921A22.031,22.031,0,0,0-274,479.885C-276.267,484.5-276.625,492.26-276.629,492.338Z" transform="translate(511.947)" fill="#061ac7"/>
    <path id="Path_77" data-name="Path 77" d="M-212.236,490.592a1,1,0,0,1-1-1V465.663h-4.2v2.02h-62v-2.02h-1.275v23.929a1,1,0,0,1-1,1,1,1,0,0,1-1-1V463.663h5.275v2.02h58v-2.02h8.2v25.929A1,1,0,0,1-212.236,490.592Z" transform="translate(464)" fill="#061ac7"/>
    <path id="Path_81" data-name="Path 81" d="M-232.286,455a12.9,12.9,0,0,0-.486-3.007,12.339,12.339,0,0,0-3.218-5.582c-2.525-2.432-6.186-3.59-10.882-3.44a18.409,18.409,0,0,0-8.553,2.114,11.671,11.671,0,0,0-4.267,4.105,12.4,12.4,0,0,0-1.8,5.807h-2a14.357,14.357,0,0,1,2.091-6.849,13.648,13.648,0,0,1,4.987-4.8,20.366,20.366,0,0,1,9.476-2.374c5.267-.167,9.423,1.185,12.352,4.018a15.091,15.091,0,0,1,4.3,10.007Z" transform="translate(460.661 3.337)" fill="#061ac7"/>
    <path id="Path_83" data-name="Path 83" d="M-261.49,449.332h-2a12.791,12.791,0,0,1,.713-3.919,7.468,7.468,0,0,1,1.8-2.9,5.577,5.577,0,0,1,3.664-1.545,4.95,4.95,0,0,1,3.815,1.349c2.448,2.319,2.481,6.826,2.481,7.016l-2,0c0-.037-.035-3.846-1.86-5.569a2.985,2.985,0,0,0-2.33-.8,3.584,3.584,0,0,0-2.373.978,5.45,5.45,0,0,0-1.3,2.109A10.885,10.885,0,0,0-261.49,449.332Z" transform="translate(499.809 17.669)" fill="#061ac7"/>
    <path id="Path_84" data-name="Path 84" d="M-254.832,449.331c0-1.173-.321-4.509-1.737-5.833a1.923,1.923,0,0,0-1.532-.537,2.511,2.511,0,0,0-1.809.925,5.836,5.836,0,0,0-1.082,2.152,13.062,13.062,0,0,0-.5,3.292h-2a15.043,15.043,0,0,1,.582-3.866c1.058-3.538,3.128-4.4,4.678-4.5a3.954,3.954,0,0,1,3.029,1.075,8.113,8.113,0,0,1,2.094,4.549,16.845,16.845,0,0,1,.274,2.741Z" transform="translate(446.361 16.357)" fill="#061ac7"/>
    <path id="Path_82" data-name="Path 82" d="M1.933,0H5.644L7,37H0Z" transform="translate(232 430)" fill="#fff"/>
    <path id="Path_82_-_Outline" data-name="Path 82 - Outline" d="M3.764,3.3,2.107,35H4.925L3.764,3.3M1.933,0H5.644L7,37H0Z" transform="translate(232 430)" fill="#061ac7"/>
    <rect id="Rectangle_186" data-name="Rectangle 186" width="10" height="7" rx="3.5" transform="translate(231 437)" fill="#fff"/>
    <path id="Rectangle_186_-_Outline" data-name="Rectangle 186 - Outline" d="M3.5,2a1.5,1.5,0,0,0,0,3h3a1.5,1.5,0,0,0,0-3h-3m0-2h3a3.5,3.5,0,0,1,0,7h-3a3.5,3.5,0,0,1,0-7Z" transform="translate(231 437)" fill="#061ac7"/>
    <rect id="Rectangle_187" data-name="Rectangle 187" width="5" height="5" transform="translate(215 455)" fill="#fff"/>
    <path id="Rectangle_187_-_Outline" data-name="Rectangle 187 - Outline" d="M2,2V3H3V2H2M0,0H5V5H0Z" transform="translate(215 455)" fill="#061ac7"/>
  </g>
</svg>
