<svg xmlns="http://www.w3.org/2000/svg" width="23.429" height="24.45" viewBox="0 0 23.429 24.45">
  <g id="Group_11" data-name="Group 11" transform="translate(-698.625 836.56)">
    <g id="Union_4" data-name="Union 4" transform="translate(703.909 -836.56)" fill="#fff" stroke-linecap="round">
      <path d="M 5.701973438262939 8.97217845916748 C 4.649313449859619 8.972198486328125 3.852323532104492 8.898737907409668 3.333133459091187 8.753848075866699 L 3.26685357093811 8.735348701477051 L 3.19865345954895 8.72609806060791 C 1.945223450660706 8.556188583374023 1.000003457069397 7.472118377685547 1.000003457069397 6.20447826385498 C 1.000003457069397 4.800738334655762 2.141663551330566 3.658718347549438 3.544953584671021 3.658718347549438 C 3.575183391571045 3.658718347549438 3.605353593826294 3.659298181533813 3.63533353805542 3.660338401794434 L 4.414333343505859 3.687378406524658 L 4.630723476409912 2.93854832649231 C 4.960533618927002 1.797158241271973 6.154173374176025 0.9999982714653015 7.533433437347412 0.9999982714653015 C 8.924723625183105 0.9999982714653015 10.15221309661865 1.839768290519714 10.45213317871094 2.996778249740601 L 10.60513305664062 3.586998224258423 L 11.19989395141602 3.721288204193115 C 12.34807395935059 3.980538368225098 13.18142318725586 5.024868488311768 13.18142318725586 6.20447826385498 C 13.18142318725586 7.607768058776855 12.03940391540527 8.749428749084473 10.63567352294922 8.749428749084473 C 10.20587348937988 8.749428749084473 9.594533920288086 8.789088249206543 8.886673927307129 8.83500862121582 C 7.94481372833252 8.896108627319336 6.77263355255127 8.972158432006836 5.701973438262939 8.97217845916748 Z" stroke="none"/>
      <path d="M 5.701953411102295 7.97217845916748 C 6.740213394165039 7.972158432006836 7.846173286437988 7.900408267974854 8.821933746337891 7.837108135223389 C 9.547153472900391 7.790058135986328 10.17346382141113 7.749428272247314 10.63567352294922 7.749428272247314 C 11.48800373077393 7.749428272247314 12.18142318725586 7.056368350982666 12.18142318725586 6.20447826385498 C 12.18142318725586 5.488068103790283 11.67600345611572 4.853968143463135 10.97965335845947 4.696738243103027 L 9.790133476257324 4.428158283233643 L 9.484133720397949 3.247698307037354 C 9.323403358459473 2.627668380737305 8.601743698120117 1.999998331069946 7.533433437347412 1.999998331069946 C 6.489193439483643 1.999998331069946 5.766053676605225 2.611798286437988 5.591413497924805 3.216148376464844 L 5.15864372253418 4.713818073272705 L 3.600633382797241 4.659738063812256 C 3.582163572311401 4.659088134765625 3.563583612442017 4.658718109130859 3.544953584671021 4.658718109130859 C 2.693063497543335 4.658718109130859 2.000003576278687 5.352148056030273 2.000003576278687 6.20447826385498 C 2.000003576278687 6.974098205566406 2.573063611984253 7.632148265838623 3.332993507385254 7.73516845703125 L 3.469373464584351 7.753658294677734 L 3.601943492889404 7.790648460388184 C 3.898723602294922 7.873478412628174 4.503953456878662 7.972198486328125 5.701953411102295 7.97217845916748 M 5.701993465423584 9.97217845916748 C 4.699223518371582 9.972198486328125 3.75351357460022 9.909378051757812 3.064323425292969 9.717038154602051 C 1.333973526954651 9.482468605041504 3.500976617942797e-06 7.999048233032227 3.500976617942797e-06 6.20447826385498 C 3.500976617942797e-06 4.246128082275391 1.587413549423218 2.658718347549438 3.544953584671021 2.658718347549438 C 3.586793422698975 2.658718347549438 3.628543615341187 2.65949821472168 3.670023441314697 2.660938262939453 C 4.112093448638916 1.131088256835938 5.674453735351562 -1.710510218799755e-06 7.533433437347412 -1.710510218799755e-06 C 9.427373886108398 -1.710510218799755e-06 11.01244354248047 1.173058271408081 11.42014312744141 2.745848178863525 C 13.00103378295898 3.102798223495483 14.18142318725586 4.515668392181396 14.18142318725586 6.20447826385498 C 14.18142318725586 8.162017822265625 12.59401321411133 9.749428749084473 10.63567352294922 9.749428749084473 C 9.679843902587891 9.749428749084473 7.59001350402832 9.972138404846191 5.701993465423584 9.97217845916748 Z" stroke="none" fill="#061ac7"/>
    </g>
    <path id="Path_25" data-name="Path 25" d="M761.8-817.2c2.466-.611,2.965,1.406.8,2.195-.746.272-5.567,3.286-7.639,3.339-2.793.073-3.133-2.976-3.133-2.976l-.848-2.331A26.706,26.706,0,0,0,761.8-817.2Z" transform="translate(197.206 -1812.296) rotate(110)" fill="#cde1f3"/>
    <circle id="Ellipse_48" data-name="Ellipse 48" cx="1" cy="1" r="1" transform="translate(712.024 -831.574)" fill="#fd54f7"/>
    <circle id="Ellipse_50" data-name="Ellipse 50" cx="1" cy="1" r="1" transform="translate(720.054 -815.86)" fill="#fd54f7"/>
    <circle id="Ellipse_49" data-name="Ellipse 49" cx="1" cy="1" r="1" transform="translate(710.5 -834.149)" fill="#fd54f7"/>
    <rect id="Rectangle_46" data-name="Rectangle 46" width="18" height="3" transform="translate(702 -829)" fill="#fff"/>
    <path id="Path_21" data-name="Path 21" d="M5.1,0H17.334c2.221,0,4.178.3,3.534,3.807L19.187,13.959H3.76L2.079,3.808C1.495-.192,4.392,0,5.1,0Z" transform="translate(699.062 -827.069)" fill="none" stroke="#061ac7" stroke-linecap="round" stroke-linejoin="round" stroke-width="2"/>
    <path id="Path_23" data-name="Path 23" d="M706.513-822.742l.512,3.122.512,3.122" transform="translate(1)" fill="#061ac7"/>
    <path id="Path_24" data-name="Path 24" d="M707.537-822.742l-.512,3.122-.512,3.122" transform="translate(5.487)" fill="#061ac7"/>
    <path id="Path_23_-_Outline" data-name="Path 23 - Outline" d="M707.536-815.5a1,1,0,0,1-.986-.838l-1.024-6.244a1,1,0,0,1,.825-1.149,1,1,0,0,1,1.149.825l1.024,6.244a1,1,0,0,1-.825,1.149A1.008,1.008,0,0,1,707.536-815.5Z" transform="translate(-1.024 0)" fill="#061ac7"/>
    <path id="Path_23_-_Outline-2" data-name="Path 23 - Outline" d="M706.515-815.5a1,1,0,0,0,.986-.838l1.024-6.244a1,1,0,0,0-.825-1.149,1,1,0,0,0-1.149.825l-1.024,6.244a1,1,0,0,0,.825,1.149A1.008,1.008,0,0,0,706.515-815.5Z" transform="translate(7.511 0)" fill="#061ac7"/>
    <path id="Line_3" data-name="Line 3" d="M0,7A1,1,0,0,1-1,6V0A1,1,0,0,1,0-1,1,1,0,0,1,1,0V6A1,1,0,0,1,0,7Z" transform="translate(710.5 -823.5)" fill="#061ac7"/>
  </g>
</svg>
