<svg xmlns="http://www.w3.org/2000/svg" width="39.284" height="78.103" viewBox="0 0 39.284 78.103">
  <g id="Group_52" data-name="Group 52" transform="translate(-311.336 -575.805)">
    <path id="Path_144" data-name="Path 144" d="M-833.451,1527.674a1.122,1.122,0,0,1-.969-.579,3.475,3.475,0,0,1-.286-.6c-.185-.475-.407-1.192-.68-2.193-.635-2.329-1.528-6.159-2.654-11.384-4.286-19.873-3.5-32.033-2.477-34.529a3.756,3.756,0,0,1,2.136-2.2c.109-.042.216-.076.318-.1v-.4h-1.147v-6.536c-.266-.118-.551-.241-.728-.306-7.974-2.947-21.5-.314-24.981.444l.623,7.277h-2.155v.144a3.294,3.294,0,0,1,2.083.947,4.308,4.308,0,0,1,.7,2.843c0,.077,0,.171,0,.211a60.713,60.713,0,0,1,0,13.708c-.408,4.356-1.141,9.272-2.177,14.612-1.762,9.078-3.823,16.347-3.844,16.419l-1.923-.548c.02-.072,2.062-7.272,3.807-16.269,1.023-5.272,1.745-10.12,2.147-14.41a58.689,58.689,0,0,0,.009-13.254,3.562,3.562,0,0,1-.02-.454,3.627,3.627,0,0,0-.18-1.515,2.192,2.192,0,0,0-1.477-.311l-1.125.142v-4.267h1.977l-.585-6.827.831-.2a82.926,82.926,0,0,1,9.747-1.646,60.69,60.69,0,0,1,8.773-.377,27.723,27.723,0,0,1,8.464,1.457c.47.174,1.357.584,1.456.63l.578.269v5.819h1.147v4.439l-1.094-.162a1.453,1.453,0,0,0-.574.123,1.853,1.853,0,0,0-.934,1.065c-.239.585-.813,3.462-.612,9.674a134.6,134.6,0,0,0,3.192,23.678c1.729,8.016,2.6,11.3,3.023,12.645l.692-.061c0,.016.035.408.042.811a4.9,4.9,0,0,1-.024.651,1.132,1.132,0,0,1-.943,1.118A1.061,1.061,0,0,1-833.451,1527.674Z" transform="translate(1182.946 -873.767)" fill="#061ac7"/>
    <path id="Path_145" data-name="Path 145" d="M-830.464,1457.455l-.341-1.971a61.909,61.909,0,0,1,6.224-.666,52.174,52.174,0,0,1,12.859.671l-.395,1.961C-820.486,1455.765-830.365,1457.438-830.464,1457.455Z" transform="translate(1151.917 -865.409)" fill="#061ac7"/>
    <path id="Path_146" data-name="Path 146" d="M-830.464,1457.455l-.341-1.971a61.909,61.909,0,0,1,6.224-.666,52.174,52.174,0,0,1,12.859.671l-.395,1.961C-820.486,1455.765-830.365,1457.438-830.464,1457.455Z" transform="translate(1151.917 -867.429)" fill="#061ac7"/>
    <path id="Path_147" data-name="Path 147" d="M-848.222,1526.434h-1.2v-2h1.2Z" transform="translate(1166.482 -919.488)" fill="#061ac7"/>
    <path id="Path_148" data-name="Path 148" d="M-848.222,1526.434h-1.2v-2h1.2Z" transform="translate(1166.482 -917.018)" fill="#061ac7"/>
    <path id="Path_149" data-name="Path 149" d="M-848.222,1526.434h-1.2v-2h1.2Z" transform="translate(1166.931 -914.548)" fill="#061ac7"/>
    <path id="Path_150" data-name="Path 150" d="M-848.222,1526.434h-1.2v-2h1.2Z" transform="translate(1166.931 -912.303)" fill="#061ac7"/>
    <path id="Path_151" data-name="Path 151" d="M-848.222,1526.434h-1.2v-2h1.2Z" transform="translate(1166.931 -910.057)" fill="#061ac7"/>
    <path id="Path_152" data-name="Path 152" d="M-848.222,1526.434h-1.2v-2h1.2Z" transform="translate(1192.304 -919.488)" fill="#061ac7"/>
    <path id="Path_153" data-name="Path 153" d="M-848.222,1526.434h-1.2v-2h1.2Z" transform="translate(1192.304 -917.018)" fill="#061ac7"/>
    <path id="Path_154" data-name="Path 154" d="M-848.222,1526.434h-1.2v-2h1.2Z" transform="translate(1191.855 -914.548)" fill="#061ac7"/>
    <path id="Path_155" data-name="Path 155" d="M-848.222,1526.434h-1.2v-2h1.2Z" transform="translate(1191.855 -912.303)" fill="#061ac7"/>
    <path id="Path_156" data-name="Path 156" d="M-848.222,1526.434h-1.2v-2h1.2Z" transform="translate(1192.304 -910.057)" fill="#061ac7"/>
    <path id="Path_157" data-name="Path 157" d="M-848.222,1526.434h-1.2v-2h1.2Z" transform="translate(1192.304 -908.261)" fill="#061ac7"/>
    <path id="Path_158" data-name="Path 158" d="M-848.222,1526.434h-1.2v-2h1.2Z" transform="translate(1192.453 -905.791)" fill="#061ac7"/>
    <path id="Path_159" data-name="Path 159" d="M-848.222,1526.434h-1.2v-2h1.2Z" transform="translate(1192.453 -903.321)" fill="#061ac7"/>
    <path id="Path_160" data-name="Path 160" d="M-814.68,1556.432c-.253-.563-.845-1.882-.4-27.171.186-10.461.48-20.8.57-23.846-.455-.052-.889-.085-1.241-.095a23.145,23.145,0,0,1,.263,4.39c0,2.558-.1,5.818-.215,9.27s-.228,7.013-.235,10c-.021,8.868-2.1,26.973-2.124,27.155l-1.987-.23c.021-.181,2.09-18.174,2.111-26.929.007-3.019.124-6.6.236-10.062.107-3.281.207-6.38.213-8.854.008-3.422-.185-4.28-.262-4.485a1.3,1.3,0,0,1-.178-1.484c.429-.756,1.451-.841,2.853-.738.888.066,1.72.2,1.755.209l.862.144-.027.873c0,.12-.371,12.183-.592,24.485-.129,7.221-.184,13.108-.161,17.5.039,7.529.3,8.841.384,9.064l-.006-.015Z" transform="translate(1142.934 -903.115)" fill="#061ac7"/>
    <path id="Path_185" data-name="Path 185" d="M-817.85,1556.432l-1.825-.819-.006.015c.08-.223.345-1.535.384-9.064.022-4.391-.032-10.279-.161-17.5-.221-12.3-.588-24.363-.592-24.483l-.027-.873.862-.144c.035-.006.867-.144,1.755-.209,1.4-.1,2.424-.018,2.853.738a1.3,1.3,0,0,1-.177,1.484c-.077.205-.27,1.064-.262,4.486.006,2.475.107,5.574.214,8.855.113,3.462.229,7.042.236,10.062.021,8.755,2.09,26.749,2.111,26.929l-1.987.23c-.021-.182-2.1-18.286-2.124-27.155-.007-2.989-.123-6.554-.235-10s-.218-6.712-.215-9.271a23.144,23.144,0,0,1,.263-4.39c-.352.009-.786.042-1.241.095.09,3.046.384,13.385.57,23.846C-817.005,1554.55-817.6,1555.869-817.85,1556.432Z" transform="translate(1154.426 -903.115)" fill="#061ac7"/>
    <path id="Path_161" data-name="Path 161" d="M-839.387,1534.984l-.48-1.941a25.363,25.363,0,0,1,7.093-.677l-.177,1.992A23.691,23.691,0,0,0-839.387,1534.984Z" transform="translate(1158.89 -925.597)" fill="#061ac7"/>
    <path id="Path_162" data-name="Path 162" d="M-839.387,1534.984l-.48-1.941a25.363,25.363,0,0,1,7.093-.677l-.177,1.992A23.691,23.691,0,0,0-839.387,1534.984Z" transform="translate(1158.89 -922.426)" fill="#061ac7"/>
    <path id="Path_167" data-name="Path 167" d="M6.146.689-1.41.161l.14-2,7.555.528Z" transform="matrix(0.998, -0.07, 0.07, 0.998, 319.412, 622.743)" fill="#061ac7"/>
    <path id="Path_203" data-name="Path 203" d="M6.146.689-1.41.161l.14-2,7.555.528Z" transform="matrix(0.998, -0.07, 0.07, 0.998, 319.485, 626.042)" fill="#061ac7"/>
    <path id="Line_32" data-name="Line 32" d="M5.164,1H0V-1H5.164Z" transform="translate(329.845 607.757)" fill="#061ac7"/>
    <path id="Line_35" data-name="Line 35" d="M5.164,1H0V-1H5.164Z" transform="translate(329.845 622.247)" fill="#061ac7"/>
    <path id="Line_38" data-name="Line 38" d="M5.164,1H0V-1H5.164Z" transform="translate(338.016 622.247)" fill="#061ac7"/>
    <path id="Line_40" data-name="Line 40" d="M5.164,1H0V-1H5.164Z" transform="translate(337.416 607.713)" fill="#061ac7"/>
    <path id="Line_33" data-name="Line 33" d="M5.164,1H0V-1H5.164Z" transform="translate(329.845 610.931)" fill="#061ac7"/>
    <path id="Line_34" data-name="Line 34" d="M5.164,1H0V-1H5.164Z" transform="translate(329.845 625.42)" fill="#061ac7"/>
    <path id="Line_39" data-name="Line 39" d="M5.164,1H0V-1H5.164Z" transform="translate(338.016 625.42)" fill="#061ac7"/>
    <path id="Line_41" data-name="Line 41" d="M5.164,1H0V-1H5.164Z" transform="translate(337.416 610.886)" fill="#061ac7"/>
    <g id="Group_49" data-name="Group 49" transform="translate(325.579 596.082)">
      <path id="Path_188" data-name="Path 188" d="M3.889-.623A5.666,5.666,0,0,0,2.1-1,5.052,5.052,0,0,0,.4-.63L-.4-2.466A6.936,6.936,0,0,1,2.1-3a7.527,7.527,0,0,1,2.544.522Z" transform="translate(0 1.997)" fill="#061ac7"/>
      <path id="Path_195" data-name="Path 195" d="M3.889-.623A5.666,5.666,0,0,0,2.1-1,5.052,5.052,0,0,0,.4-.63L-.4-2.466A6.936,6.936,0,0,1,2.1-3a7.527,7.527,0,0,1,2.544.522Z" transform="translate(9.431 1.997)" fill="#061ac7"/>
      <path id="Path_186" data-name="Path 186" d="M.268-.114-.269-2.041A10.392,10.392,0,0,1,2.183-2.39a9.106,9.106,0,0,1,2.377.356L3.973-.122A7.123,7.123,0,0,0,2.183-.39,8.424,8.424,0,0,0,.268-.114Z" transform="translate(0 3.896)" fill="#061ac7"/>
      <path id="Path_193" data-name="Path 193" d="M.268-.114-.269-2.041A10.392,10.392,0,0,1,2.183-2.39a9.106,9.106,0,0,1,2.377.356L3.973-.122A7.123,7.123,0,0,0,2.183-.39,8.424,8.424,0,0,0,.268-.114Z" transform="translate(9.431 3.896)" fill="#061ac7"/>
      <path id="Path_190" data-name="Path 190" d="M.268-.114-.269-2.041A10.392,10.392,0,0,1,2.183-2.39a9.106,9.106,0,0,1,2.377.356L3.973-.122A7.123,7.123,0,0,0,2.183-.39,8.424,8.424,0,0,0,.268-.114Z" transform="translate(0 6.141)" fill="#061ac7"/>
      <path id="Path_191" data-name="Path 191" d="M.268-.114-.269-2.041A10.392,10.392,0,0,1,2.183-2.39a9.106,9.106,0,0,1,2.377.356L3.973-.122A7.123,7.123,0,0,0,2.183-.39,8.424,8.424,0,0,0,.268-.114Z" transform="translate(9.431 6.141)" fill="#061ac7"/>
    </g>
    <path id="Path_196" data-name="Path 196" d="M-799.429,1432.305h-2v-1.75a9.36,9.36,0,0,0-1.756-.456,8.826,8.826,0,0,0-5.186.7l-.841-1.815a11.041,11.041,0,0,1,9.246.021l.537.28Z" transform="translate(1134.978 -844.693)" fill="#061ac7"/>
    <path id="Path_197" data-name="Path 197" d="M-807.792,1435.9h-2v-2.652h2Z" transform="translate(1134.978 -848.002)" fill="#061ac7"/>
    <path id="Path_198" data-name="Path 198" d="M-792.511,1391.643l.7,5.427-.2.888,1.419,2.933h-5.535l1.586-2.982-.141-.82.186-5.352Z" transform="translate(1123.646 -815.837)" fill="#061ac7"/>
  </g>
</svg>
