<svg xmlns="http://www.w3.org/2000/svg" xmlns:xlink="http://www.w3.org/1999/xlink" width="31.852" height="81.202" viewBox="0 0 31.852 81.202">
  <defs>
    <linearGradient id="linear-gradient" x1="0.5" x2="0.5" y2="1" gradientUnits="objectBoundingBox">
      <stop offset="0" stop-color="#061ac7"/>
      <stop offset="1" stop-color="#e61295"/>
    </linearGradient>
  </defs>
  <g id="Group_46" data-name="Group 46" transform="translate(-83.188 -420.5)">
    <path id="Union_5" data-name="Union 5" d="M498.768-1144.8v-25.374c-.95.646-2.591,1.824-5.406,3.974a23.29,23.29,0,0,1-7.4,3.638,39.4,39.4,0,0,1-7.624,1.454,50.729,50.729,0,0,1-7.334.173v14.709a1,1,0,0,1-1,1,1,1,0,0,1-1-1v-16.882l1.1.107c.018,0,.988.093,2.548.118v-14.32a1,1,0,0,1,.443-.831,1,1,0,0,1,.937-.094,18.592,18.592,0,0,0,1.838.6v-13.035l1.375.557c.014.005.377.149.978.325a1.018,1.018,0,0,1-.006-.108v-8.9l1.314.435a13.915,13.915,0,0,0,2.076.454v-4.842l1.175.3a4.183,4.183,0,0,0,2.777-1.229,15.084,15.084,0,0,0,1.26-1.184v-14.74h2v12.458c.815-1,1.393-1.786,1.406-1.8l1.806-2.463v9.1l1.388-1.491v8.287c.35-.406.542-.657.549-.667l1.8-2.381v15.188a13.537,13.537,0,0,0,.556-2.033,15.2,15.2,0,0,0,.239-1.808,1,1,0,0,1,1.03-.936,1,1,0,0,1,.968,1v14.631c.21-.128.386-.226.533-.3a2.055,2.055,0,0,1,.436-.167,1.066,1.066,0,0,1,1.039.283,1.049,1.049,0,0,1,.209,1.137v26.662a1,1,0,0,1-1,1A1,1,0,0,1,498.768-1144.8Zm-24.124-18.091c1.064-.025,2.262-.088,3.536-.212a37.27,37.27,0,0,0,7.217-1.379,21.319,21.319,0,0,0,6.751-3.308c1.828-1.4,3.327-2.51,4.479-3.33a1,1,0,0,1-.076-.381v-9.19a3.438,3.438,0,0,1-.284.279,23.553,23.553,0,0,1-11.5,5.441,22.366,22.366,0,0,1-10.122-.826Zm9.767-14.048a21.7,21.7,0,0,0,9.721-4.3,1,1,0,0,1-.373-.779v-10.813a25.621,25.621,0,0,1-6.008,4.626c-3.52,1.894-7.75,1.109-9.889.5v10.63A18.488,18.488,0,0,0,484.411-1176.937Zm-2.137-12.08v-6.7a16.516,16.516,0,0,1-2.065-.3v6.227a1,1,0,0,1-.158.541A14.92,14.92,0,0,0,482.275-1189.018Zm2-.121a7.9,7.9,0,0,0,2.528-.823q.276-.149.544-.305v-6.15l-.054.024a9.074,9.074,0,0,1-3.019.7Zm5.073-2.462a25.3,25.3,0,0,0,2.063-1.732v-5.576a20,20,0,0,1-2.063,1.443Zm-5.34-6.079a7.175,7.175,0,0,0,2.483-.545,16.859,16.859,0,0,0,3.533-2.141v-5a26.491,26.491,0,0,1-3.206,3.337,7.138,7.138,0,0,1-3.218,1.613v2.469A1,1,0,0,1,484.008-1197.68Zm2.8-26.32a1,1,0,0,1,1-1,1,1,0,0,1,1,1,1,1,0,0,1-1,1A1,1,0,0,1,486.812-1224Z" transform="translate(-385.812 1645.5)" fill="url(#linear-gradient)"/>
  </g>
</svg>
