<svg xmlns="http://www.w3.org/2000/svg" width="25" height="27.203" viewBox="0 0 25 27.203">
  <g id="Group_16" data-name="Group 16" transform="translate(-561 860.703)">
    <path id="Path_27" data-name="Path 27" d="M16,12H4A4,4,0,0,1,0,8V4S18.209,12,16,12Z" transform="translate(561 -849.703)" fill="#cde1f3" style="mix-blend-mode: multiply;isolation: isolate"/>
    <path id="Rectangle_47_-_Outline" data-name="Rectangle 47 - Outline" d="M4,2A2,2,0,0,0,2,4V8a2,2,0,0,0,2,2H16a2,2,0,0,0,2-2V4a2,2,0,0,0-2-2H4M4,0H16a4,4,0,0,1,4,4V8a4,4,0,0,1-4,4H4A4,4,0,0,1,0,8V4A4,4,0,0,1,4,0Z" transform="translate(561 -849.703)" fill="#061ac7"/>
    <path id="Path_26_-_Outline" data-name="Path 26 - Outline" d="M4.8.952,2,3.012V4.856L4.8,6.5V.952M6.8-3V10L0,6V2Z" transform="translate(579.197 -847.703)" fill="#061ac7"/>
    <path id="Rectangle_48_-_Outline" data-name="Rectangle 48 - Outline" d="M6,2a4,4,0,1,0,4,4A4,4,0,0,0,6,2M6,0A6,6,0,1,1,0,6,6,6,0,0,1,6,0Z" transform="translate(568 -860.703)" fill="#061ac7"/>
    <path id="Ellipse_51_-_Outline" data-name="Ellipse 51 - Outline" d="M3,2A1,1,0,1,0,4,3,1,1,0,0,0,3,2M3,0A3,3,0,1,1,0,3,3,3,0,0,1,3,0Z" transform="translate(563 -854.703)" fill="#061ac7"/>
    <path id="Line_3" data-name="Line 3" d="M0,7A1,1,0,0,1-1,6V0A1,1,0,0,1,0-1,1,1,0,0,1,1,0V6A1,1,0,0,1,0,7Z" transform="translate(567 -842.703) rotate(-90)" fill="#061ac7"/>
    <path id="Line_3-2" data-name="Line 3" d="M0,7A1,1,0,0,1-1,6l.521-3.046a1,1,0,1,1,2,0L1,6A1,1,0,0,1,0,7Z" transform="matrix(-0.985, -0.174, 0.174, -0.985, 565.8, -831.749)" fill="#061ac7"/>
    <path id="Line_3-3" data-name="Line 3" d="M1,0A1,1,0,0,0,0,1L.521,4.046a1,1,0,1,0,2,0L2,1A1,1,0,0,0,1,0Z" transform="matrix(0.985, -0.174, 0.174, 0.985, 572.641, -838.469)" fill="#061ac7"/>
    <circle id="Ellipse_52" data-name="Ellipse 52" cx="1" cy="1" r="1" transform="translate(574 -857.203)" fill="#fd54f7"/>
    <circle id="Ellipse_54" data-name="Ellipse 54" cx="1" cy="1" r="1" transform="translate(571 -856.203)" fill="#fd54f7"/>
    <circle id="Ellipse_55" data-name="Ellipse 55" cx="1" cy="1" r="1" transform="translate(573.321 -854.203)" fill="#fd54f7"/>
  </g>
</svg>
