<svg xmlns="http://www.w3.org/2000/svg" width="34.014" height="21" viewBox="0 0 34.014 21">
  <g id="Group_10" data-name="Group 10" transform="translate(-765.71 834)">
    <path id="Path_20" data-name="Path 20" d="M761.8-817.2c2.466-.611,2.965,1.406.8,2.195-.746.272-5.567,3.286-7.639,3.339-2.793.073-6-4.573-6-4.573A51.721,51.721,0,0,0,761.8-817.2Z" transform="translate(264.291 -1814.888) rotate(110)" fill="#cde1f3"/>
    <g id="Ellipse_38" data-name="Ellipse 38" transform="translate(767 -834)" fill="none" stroke="#061ac7" stroke-width="2">
      <circle cx="10.5" cy="10.5" r="10.5" stroke="none"/>
      <circle cx="10.5" cy="10.5" r="9.5" fill="none"/>
    </g>
    <circle id="Ellipse_39" data-name="Ellipse 39" cx="1" cy="1" r="1" transform="translate(774.461 -827.219)" fill="#fd54f7"/>
    <circle id="Ellipse_40" data-name="Ellipse 40" cx="1" cy="1" r="1" transform="translate(778.461 -828.219)" fill="#fd54f7"/>
    <circle id="Ellipse_41" data-name="Ellipse 41" cx="1" cy="1" r="1" transform="translate(777.461 -824.5)" fill="#061ac7"/>
    <circle id="Ellipse_42" data-name="Ellipse 42" cx="1" cy="1" r="1" transform="translate(781.461 -824.5)" fill="#fd54f7"/>
    <circle id="Ellipse_43" data-name="Ellipse 43" cx="1" cy="1" r="1" transform="translate(779.461 -820.781)" fill="#fd54f7"/>
    <circle id="Ellipse_44" data-name="Ellipse 44" cx="1" cy="1" r="1" transform="translate(775.461 -820.781)" fill="#fd54f7"/>
    <circle id="Ellipse_45" data-name="Ellipse 45" cx="1" cy="1" r="1" transform="translate(773.461 -823.5)" fill="#fd54f7"/>
    <path id="Path_19" data-name="Path 19" d="M808.31-819.733s-4.54-4.594-9.558.365-8.4,7.019-13.633,6.093" transform="translate(-10 -1)" fill="none" stroke="#061ac7" stroke-linecap="round" stroke-width="2"/>
  </g>
</svg>
