<svg xmlns="http://www.w3.org/2000/svg" width="27.923" height="22.971" viewBox="0 0 27.923 22.971">
  <g id="Group_9" data-name="Group 9" transform="translate(-815.077 834.043)">
    <rect id="Rectangle_40" data-name="Rectangle 40" width="2" height="4.293" rx="1" transform="translate(822.329 -815.364)" fill="#061ac7"/>
    <rect id="Rectangle_41" data-name="Rectangle 41" width="2" height="4.293" rx="1" transform="translate(834.337 -815.364)" fill="#061ac7"/>
    <path id="Path_18" data-name="Path 18" d="M761.8-817.2c2.466-.611,2.965,1.406.8,2.195-.746.272-5.567,3.286-7.639,3.339-2.793.073-3.133-2.976-3.133-2.976l-.848-2.331A26.706,26.706,0,0,0,761.8-817.2Z" transform="translate(316.829 -1817.339) rotate(110)" fill="#cde1f3"/>
    <g id="Union_1" data-name="Union 1" transform="translate(814.999 -834)" fill="none">
      <path d="M5.429,20a3.429,3.429,0,0,1-.54-6.815,6.452,6.452,0,0,1-.052-.821V7.637C4.837,3.419,2.638-.24,14,0s9.165,3.419,9.165,7.637v4.728a6.452,6.452,0,0,1-.052.821A3.429,3.429,0,0,1,22.573,20Z" stroke="none"/>
      <path d="M 22.57289886474609 17.99979972839355 C 23.36084938049316 17.99979972839355 24.00189971923828 17.35915946960449 24.00189971923828 16.57170104980469 C 24.00189971923828 15.87551021575928 23.48533058166504 15.2688102722168 22.80031967163086 15.16048049926758 L 20.88193893432617 14.85708045959473 L 21.12898063659668 12.93064022064209 C 21.15295028686523 12.74376010894775 21.16510009765625 12.55318069458008 21.16510009765625 12.36420059204102 L 21.16510009765625 7.636500358581543 C 21.16510009765625 6.941440105438232 21.21709060668945 6.283430099487305 21.26296043395996 5.702880382537842 C 21.36187934875488 4.450890064239502 21.40651893615723 3.66588020324707 21.09152030944824 3.317690134048462 C 20.9390697479248 3.149180173873901 20.51135063171387 2.824130296707153 19.35951042175293 2.540370225906372 C 18.10260009765625 2.230720281600952 16.28530883789062 2.048770189285278 13.95810985565186 1.999550223350525 C 13.62043952941895 1.99241030216217 13.28971004486084 1.988790273666382 12.97511005401611 1.988790273666382 C 8.447909355163574 1.988790273666382 7.255069732666016 2.749020338058472 6.952359676361084 3.075880289077759 C 6.59637975692749 3.460240364074707 6.634859561920166 4.323480129241943 6.74053955078125 5.69950008392334 C 6.785569667816162 6.285730361938477 6.836599826812744 6.950170040130615 6.836599826812744 7.636500358581543 L 6.836599826812744 12.36420059204102 C 6.836599826812744 12.5532398223877 6.84874963760376 12.74381065368652 6.87270975112915 12.93064022064209 L 7.119749546051025 14.85708045959473 L 5.201369762420654 15.16048049926758 C 4.516359806060791 15.2688102722168 3.999799728393555 15.87551021575928 3.999799728393555 16.57170104980469 C 3.999799728393555 17.35915946960449 4.640849590301514 17.99979972839355 5.428799629211426 17.99979972839355 L 22.57289886474609 17.99979972839355 M 22.57289886474609 19.99979972839355 L 5.428799629211426 19.99979972839355 C 3.535199642181396 19.99979972839355 1.999799728393555 18.46529960632324 1.999799728393555 16.57170104980469 C 1.999799728393555 14.86175060272217 3.251739740371704 13.44396018981934 4.888949871063232 13.18502998352051 C 4.854379653930664 12.91545009613037 4.836599826812744 12.64142990112305 4.836599826812744 12.36420059204102 L 4.836599826812744 7.636500358581543 C 4.836599826812744 3.419100046157837 2.63793420791626 -0.240299254655838 14.00039958953857 2.517700181670079e-07 C 25.36380004882812 0.240300253033638 23.16510009765625 3.419100284576416 23.16510009765625 7.636500358581543 L 23.16510009765625 12.36420059204102 C 23.16510009765625 12.64142990112305 23.14731025695801 12.91545009613037 23.11273956298828 13.18502998352051 C 24.74995040893555 13.44396018981934 26.00189971923828 14.86175060272217 26.00189971923828 16.57170104980469 C 26.00189971923828 18.46529960632324 24.46649932861328 19.99979972839355 22.57289886474609 19.99979972839355 Z" stroke="none" fill="#061ac7"/>
    </g>
    <g id="Union_2" data-name="Union 2" transform="translate(813.577 -822.049)" fill="#fff">
      <path d="M 5.731200218200684 7.048700332641602 C 4.79779052734375 7.048700332641602 4.038400650024414 6.289720058441162 4.038400650024414 5.356800079345703 L 4.038400650024414 4.3886399269104 L 4.038400650024414 3.85467004776001 L 3.594670534133911 3.557640075683594 C 2.90941047668457 3.09893012046814 2.500300407409668 2.333530187606812 2.500300407409668 1.510200142860413 C 2.500300407409668 0.152980163693428 3.604480504989624 -0.9511998295783997 4.961700439453125 -0.9511998295783997 C 6.305530548095703 -0.9511998295783997 7.409630298614502 0.1418101638555527 7.422930240631104 1.485300183296204 L 7.423100471496582 1.510200142860413 L 7.423100471496582 5.356800079345703 C 7.423100471496582 6.289720058441162 6.664120674133301 7.048700332641602 5.731200218200684 7.048700332641602 Z" stroke="none"/>
      <path d="M 5.731200218200684 6.048700332641602 C 6.112710475921631 6.048700332641602 6.423100471496582 5.73831033706665 6.423100471496582 5.356800079345703 L 6.422980308532715 1.495190143585205 C 6.415080547332764 0.697650134563446 5.759560585021973 0.04880016297101974 4.961700439453125 0.04880016297101974 C 4.155880451202393 0.04880016297101974 3.500300407409668 0.7043801546096802 3.500300407409668 1.510200142860413 C 3.500300407409668 1.999180197715759 3.743530511856079 2.453920125961304 4.150940418243408 2.726630210876465 L 5.038400650024414 3.320700168609619 L 5.038400650024414 5.356800079345703 C 5.038400650024414 5.73831033706665 5.349190235137939 6.048700332641602 5.731200218200684 6.048700332641602 M 5.731200218200684 8.048700332641602 C 4.243500232696533 8.048700332641602 3.038400411605835 6.843600273132324 3.038400411605835 5.356800079345703 L 3.038400411605835 4.3886399269104 C 2.11098051071167 3.76783013343811 1.500300407409668 2.710650205612183 1.500300407409668 1.510200142860413 C 1.500300407409668 -0.4013998508453369 3.050100326538086 -1.951199889183044 4.961700439453125 -1.951199889183044 C 6.861630439758301 -1.951199889183044 8.404120445251465 -0.4200998246669769 8.422880172729492 1.47540020942688 C 8.423020362854004 1.486980199813843 8.423100471496582 1.49858021736145 8.423100471496582 1.510200142860413 L 8.423100471496582 5.356800079345703 C 8.423100471496582 6.843600273132324 7.218000411987305 8.048700332641602 5.731200218200684 8.048700332641602 Z" stroke="none" fill="#061ac7"/>
    </g>
    <g id="Union_3" data-name="Union 3" transform="translate(834.5 -823.049)" fill="#fff">
      <path d="M 4.221900463104248 8.049500465393066 C 3.272610425949097 8.049500465393066 2.500300645828247 7.276790618896484 2.500300645828247 6.327000617980957 L 2.500300645828247 2.540700435638428 L 2.500380516052246 2.529990434646606 L 2.500400543212891 2.525970458984375 L 2.500380516052246 2.521960496902466 L 2.500310659408569 2.511490345001221 C 2.500300645828247 1.153280377388 3.604480504989624 0.04870039969682693 4.961700439453125 0.04870039969682693 L 5.038200378417969 0.04870039969682693 C 6.395920753479004 0.04870039969682693 7.500500679016113 1.153280377388 7.500500679016113 2.511000394821167 C 7.500500679016113 3.340240478515625 7.086580753326416 4.108700275421143 6.393270492553711 4.566630363464355 L 5.944400310516357 4.863110542297363 L 5.944400310516357 5.401050567626953 L 5.944400310516357 6.327000617980957 C 5.944400310516357 7.276790618896484 5.171690464019775 8.049500465393066 4.221900463104248 8.049500465393066 Z" stroke="none"/>
      <path d="M 4.221900463104248 7.049500465393066 C 4.620290756225586 7.049500465393066 4.944400310516357 6.725390434265137 4.944400310516357 6.327000617980957 L 4.944400310516357 4.325170516967773 L 5.842140674591064 3.732210397720337 C 6.254380702972412 3.459930419921875 6.500500679016113 3.003400325775146 6.500500679016113 2.511000394821167 C 6.500500679016113 1.704690456390381 5.844510555267334 1.048700451850891 5.038200378417969 1.048700451850891 L 4.961700439453125 1.048700451850891 C 4.157110214233398 1.048700451850891 3.502301931381226 1.702730417251587 3.500305414199829 2.507350921630859 L 3.500410556793213 2.526000499725342 L 3.500300645828247 2.54511833190918 L 3.500300645828247 6.327000617980957 C 3.500300645828247 6.725390434265137 3.824010610580444 7.049500465393066 4.221900463104248 7.049500465393066 M 4.221900463104248 9.049500465393066 C 2.718900442123413 9.049500465393066 1.500300526618958 7.830000400543213 1.500300526618958 6.327000617980957 L 1.500300526618958 2.540700435638428 C 1.500300526618958 2.535740375518799 1.500370502471924 2.530900478363037 1.500390529632568 2.52595043182373 C 1.500370502471924 2.52094030380249 1.500300526618958 2.51602029800415 1.500300526618958 2.511000394821167 C 1.500300526618958 0.5985003709793091 3.050100564956665 -0.9512996077537537 4.961700439453125 -0.9512996077537537 L 5.038200378417969 -0.9512996077537537 C 6.950700759887695 -0.9512996077537537 8.500500679016113 0.5985003709793091 8.500500679016113 2.511000394821167 C 8.500500679016113 3.718580484390259 7.882070541381836 4.781720161437988 6.944400310516357 5.401050567626953 L 6.944400310516357 6.327000617980957 C 6.944400310516357 7.830000400543213 5.725800514221191 9.049500465393066 4.221900463104248 9.049500465393066 Z" stroke="none" fill="#061ac7"/>
    </g>
    <circle id="Ellipse_35" data-name="Ellipse 35" cx="1" cy="1" r="1" transform="translate(827 -827)" fill="#fd54f7"/>
    <circle id="Ellipse_36" data-name="Ellipse 36" cx="1" cy="1" r="1" transform="translate(829 -830.17)" fill="#fd54f7"/>
    <circle id="Ellipse_37" data-name="Ellipse 37" cx="1" cy="1" r="1" transform="translate(831 -827.17)" fill="#fd54f7"/>
    <line id="Line_2" data-name="Line 2" x2="16" transform="translate(821 -819.5)" fill="none" stroke="#061ac7" stroke-width="2"/>
  </g>
</svg>
